# xmcd
# Track frame offsets:
# 150
# 11543
# 31331
# 49362
# 66372
# 85988
# 103864
# 121297
# 135682
# 156885
# 175893
# 191869
# 214143
# 233884
# 250663
#
# Disc length: 3727 seconds
# Revision: 0
# Processed by: cddbd v1.5.1PL0 Copyright (c) Steve Scherf et al.
# Submitted via: VisiTrax 2.9.10.228 - For more info visit www.synapsa.com
#
DISCID=d60e8d0f
DTITLE=Various Artist - CB60334
DYEAR=1900
DGENRE=Karaoke
TTITLE0=Nichols, Joe - What's A Guy Gotta Do
TTITLE1=Urban, Keith - You're My Better Half
TTITLE2=Rascal Flatts - Bless The Broken Road
TTITLE3=Womack, Lee Ann - I May Hate Myself In The Morning
TTITLE4=Montgomery Gentry - Gone
TTITLE5=Wayne, Jimmy - Paper Angels
TTITLE6=Lambert, Miranda - Me and Charlie Talking
TTITLE7=Chesnutt, Mark - I'm A Saint
TTITLE8=Evans, Sara - Tonight
TTITLE9=Green, Pat - Don't Break My Heart Again
TTITLE10=Morgan, Craig - That's What I Love About Sunday
TTITLE11=Wright, Chely - Bumper Of My Suv, The
TTITLE12=Big and Rich - Holy Water
TTITLE13=Griggs, Andy - If Heaven
TTITLE14=Dean, Billy - Let Them Be Little
EXTD=
EXTT0=
EXTT1=
EXTT2=
EXTT3=
EXTT4=
EXTT5=
EXTT6=
EXTT7=
EXTT8=
EXTT9=
EXTT10=
EXTT11=
EXTT12=
EXTT13=
EXTT14=
PLAYORDER=
